<?xml version="1.0" encoding="utf-8"?>
<!-- Generator: Adobe Illustrator 26.0.3, SVG Export Plug-In . SVG Version: 6.00 Build 0)  -->
<svg version="1.1" id="Ebene_1" xmlns="http://www.w3.org/2000/svg" xmlns:xlink="http://www.w3.org/1999/xlink" x="0px" y="0px"
	 viewBox="0 0 816.4 283.5" style="enable-background:new 0 0 816.4 283.5;" xml:space="preserve">
<style type="text/css">
	.st0{fill:#848483;}
	.st1{fill:#FFD300;}
	.st2{fill:#F8B121;}
</style>
<g>
	<g>
		<path class="st0" d="M228.2,279.9c-2.6,0-4.8-0.1-6.8-0.1v-25c2,0,5-0.1,8-0.1c8.1,0,13.2,3.6,13.2,12.3
			C242.5,275.5,236.6,279.9,228.2,279.9z M229,258c-1.3,0-2.6,0-3.5,0.1v18.2c0.8,0.1,2.1,0.2,3.1,0.2c5.5,0,9.4-2.9,9.4-9.3
			C238.1,261.3,235.3,258,229,258z"/>
		<path class="st0" d="M256.6,279.8v-25h4.2v25H256.6z"/>
		<path class="st0" d="M276.9,279.8v-25h13.6v3.4h-9.4v7.1h9v3.3h-9v7.8h9.4v3.5H276.9z"/>
		<path class="st0" d="M328.1,280.1c-2.2,0-4.2-0.3-5.8-0.7l0.5-3.9c1.7,0.6,3.6,1,5.5,1c2.7,0,5-1.1,5-3.8c0-5.3-11.3-3-11.3-11.1
			c0-4.3,3.4-7.3,9.3-7.3c1.5,0,3.2,0.2,4.7,0.5l-0.4,3.6c-1.4-0.4-2.9-0.7-4.4-0.7c-3.2,0-4.7,1.4-4.7,3.5c0,5,11.4,3.2,11.4,11.1
			C337.8,276.8,334,280.1,328.1,280.1z"/>
		<path class="st0" d="M362,280.1c-7.8,0-11.6-4.9-11.6-12.5c0-8.4,5.6-13.2,12.4-13.2c7.8,0,11.6,4.9,11.6,12.5
			C374.4,275.3,368.8,280.1,362,280.1z M362.4,257.9c-4.2,0-7.6,3.3-7.6,9.1c0,5.7,2.4,9.5,7.5,9.5c4.2,0,7.6-3.3,7.6-9.1
			C370,261.7,367.5,257.9,362.4,257.9z"/>
		<path class="st0" d="M388.3,279.8v-25h4.2v21.5h8.9v3.5H388.3z"/>
		<path class="st0" d="M430.2,279.8l-2-5.5h-10.5l-2,5.5h-4.2l9.2-25h4.8l9.3,25H430.2z M424.1,262.5c-0.4-1.2-0.8-2.4-1.1-3.4h-0.1
			c-0.3,1-0.6,2.2-1,3.4l-3.1,8.5h8.4L424.1,262.5z"/>
		<path class="st0" d="M459.9,279.8l-7.8-10.8h-0.5v10.8h-4.2v-25c1.9-0.1,4-0.1,6.9-0.1c5.4,0,9,1.8,9,6.8c0,4-3.2,6.6-7,7
			c0.7,0.9,1.5,1.8,2.1,2.7l6.6,8.7H459.9z M453.9,257.9c-0.8,0-1.6,0-2.2,0.1v7.9c0.4,0,1.1,0.1,2,0.1c3.4,0,5.4-1.7,5.4-4.2
			C459.1,259.1,457.3,257.9,453.9,257.9z"/>
		<path class="st0" d="M492.2,279.8l-9.4-12.2v12.2h-4.2v-25h4.2v11.6l9.4-11.6h5.1l-10.2,12.1l10.6,12.9H492.2z"/>
		<path class="st0" d="M523.1,279.8l-7.8-10.8h-0.5v10.8h-4.2v-25c1.9-0.1,4-0.1,6.9-0.1c5.4,0,9,1.8,9,6.8c0,4-3.2,6.6-7,7
			c0.7,0.9,1.5,1.8,2.1,2.7l6.6,8.7H523.1z M517.1,257.9c-0.8,0-1.6,0-2.2,0.1v7.9c0.4,0,1.1,0.1,2,0.1c3.4,0,5.4-1.7,5.4-4.2
			C522.3,259.1,520.5,257.9,517.1,257.9z"/>
		<path class="st0" d="M557.3,279.8l-1.9-5.5h-10.5l-2,5.5h-4.2l9.2-25h4.8l9.3,25H557.3z M551.2,262.5c-0.4-1.2-0.8-2.4-1.1-3.4
			h-0.1c-0.3,1-0.6,2.2-1,3.4L546,271h8.4L551.2,262.5z"/>
		<path class="st0" d="M578.8,258.1v7.3h8.8v3.3h-8.8v11h-4.2v-25h13.5v3.4H578.8z"/>
		<path class="st0" d="M610.9,258.1v21.6h-4.2v-21.6h-7.1v-3.4H618v3.4H610.9z"/>
		<path class="st0" d="M656.7,279.8h-5.1l-4.4-15.5c-0.4-1.5-0.7-3.1-1-4.7h0c-0.2,1.6-0.5,3.1-0.9,4.6l-4.4,15.5h-4.9l-6.7-25h4.4
			l4,15.2c0.4,1.7,0.8,3.3,1,4.9h0c0.3-1.6,0.6-3.2,1-4.7l4.4-15.4h4.5l4.5,15.4c0.4,1.3,0.8,3,1,4.6h0c0.3-1.6,0.6-3,0.9-4.4
			l4-15.7h4.2L656.7,279.8z"/>
		<path class="st0" d="M676.8,279.8v-25h13.6v3.4H681v7.1h9v3.3h-9v7.8h9.4v3.5H676.8z"/>
		<path class="st0" d="M717.7,279.8l-7.8-10.8h-0.5v10.8h-4.2v-25c1.9-0.1,4-0.1,6.9-0.1c5.4,0,9,1.8,9,6.8c0,4-3.2,6.6-7,7
			c0.7,0.9,1.5,1.8,2.1,2.7l6.6,8.7H717.7z M711.7,257.9c-0.8,0-1.6,0-2.2,0.1v7.9c0.4,0,1.1,0.1,2,0.1c3.4,0,5.4-1.7,5.4-4.2
			C716.9,259.1,715.1,257.9,711.7,257.9z"/>
		<path class="st0" d="M750,279.8l-9.4-12.2v12.2h-4.2v-25h4.2v11.6l9.4-11.6h5.1l-10.2,12.1l10.6,12.9H750z"/>
		<path class="st0" d="M768.5,279.8v-25h13.6v3.4h-9.4v7.1h9v3.3h-9v7.8h9.4v3.5H768.5z"/>
		<path class="st0" d="M809.4,279.8l-7.8-10.8h-0.5v10.8H797v-25c1.9-0.1,4-0.1,6.9-0.1c5.4,0,9,1.8,9,6.8c0,4-3.2,6.6-7,7
			c0.7,0.9,1.5,1.8,2.1,2.7l6.6,8.7H809.4z M803.3,257.9c-0.8,0-1.6,0-2.2,0.1v7.9c0.4,0,1.1,0.1,2,0.1c3.4,0,5.4-1.7,5.4-4.2
			C808.6,259.1,806.8,257.9,803.3,257.9z"/>
	</g>
	<g>
		<path class="st0" d="M157.5,196.1c0-26.9-36.3-21.2-36.3-36.6c0-6.1,4.9-10.5,14.4-10.5c5.2,0,10.6,0.9,15.4,2.3l0.9-14.6
			c-5.1-0.9-10.7-1.5-15.6-1.5c-20.7,0-32.8,10.6-32.8,25.9c0,28.3,36.1,20.8,36.1,37.3c0,7.9-6.5,11.4-14.9,11.4
			c-6.3,0-13.1-1.4-18-3.1l-1,15.4c5.4,1.4,11.5,2,17.6,2C144.6,224.2,157.5,212.3,157.5,196.1L157.5,196.1z"/>
		<path class="st0" d="M216.9,221l-1.4-14.5c-3.6,1.8-8.2,2.7-12.8,2.7c-11.5,0-18.6-6.6-18.6-19.5c0-12.1,6.5-20.3,17.9-20.3
			c4.3,0,8.8,0.8,13,2.2l1.4-14.4c-4.2-1.1-9.6-1.7-13.5-1.7c-25.3,0-36.5,17-36.5,35.7c0,19.9,11.1,32.7,33.2,32.7
			C205.6,223.8,211.4,222.8,216.9,221L216.9,221z"/>
		<polygon class="st0" points="290.5,222.8 290.5,156.4 274.1,156.4 274.1,181.8 245.8,181.8 245.8,156.4 229.4,156.4 229.4,222.8 
			245.8,222.8 245.8,196 274.1,196 274.1,222.8 290.5,222.8 		"/>
		<path class="st0" d="M371.4,188.8c0-22.9-14.6-33.6-33.5-33.6c-18.8,0-35.6,13.4-35.6,35.1c0,20.2,11.5,33.6,33.2,33.6
			C354.8,223.9,371.4,210.7,371.4,188.8L371.4,188.8z M353.8,189.7c0,13.5-8,19.7-17.4,19.7c-11.2,0-16.5-8.4-16.5-20
			c0-12.9,7.9-19.7,16.9-19.7C346.9,169.7,353.8,176.6,353.8,189.7L353.8,189.7z"/>
		<polygon class="st0" points="424.1,222.8 424.1,209.6 399.7,209.6 399.7,195.1 423,195.1 423,182.6 399.7,182.6 399.7,169.3 
			424.1,169.3 424.1,156.4 383.3,156.4 383.3,222.8 424.1,222.8 		"/>
		<path class="st0" d="M503.1,222.8v-66.4h-16l0.1,28c0,6.9,0.1,12.4,0.4,16.3h-0.1c-2-4.5-4.3-8.7-6.9-12.6l-19.3-31.7h-22.1v66.4
			h15.8V190c0-5.2-0.1-8.6-0.4-11.7h0.1c1.7,3.7,4,8.4,6.3,12.1l19.9,32.4H503.1L503.1,222.8z"/>
		<polygon class="st0" points="560,222.8 560,209.6 535.6,209.6 535.6,195.1 558.9,195.1 558.9,182.6 535.6,182.6 535.6,169.3 
			560,169.3 560,156.4 519.2,156.4 519.2,222.8 560,222.8 		"/>
		<path class="st0" d="M627.4,222.8l-14.7-21.4c-1.9-2.8-3.7-5.5-5-7.3c9.6-2.3,16.1-8.7,16.1-18.9c0-12.9-9.7-19.1-26-19.1
			c-8.4,0-18.5,0.1-23.9,0.4v66.4h16.5v-25.9h0.6l16.3,25.9H627.4L627.4,222.8z M606.4,176.8c0,5.5-4.1,9.2-10.5,9.2
			c-1.8,0-3.8,0-5.5-0.3v-17c1.5-0.1,3.2-0.3,5-0.3C602.2,168.5,606.4,171.6,606.4,176.8L606.4,176.8z"/>
		<path class="st0" d="M692.9,219.1v-31.7h-16.5v20.8c-2.3,0.8-5.1,1.1-7.9,1.1c-10.9,0-18.3-7-18.3-19.8c0-13.1,8.6-20.6,20.2-20.6
			c6.4,0,12.3,1.3,18.1,3.7l3.1-14.2c-7.1-2.3-14.4-3.3-21.6-3.3c-23.5,0-37.3,15.8-37.3,35.6c0,22,14.7,33.1,34.3,33.1
			C676.6,223.9,685,222.2,692.9,219.1L692.9,219.1z"/>
		<polygon class="st0" points="724.8,222.8 724.8,156.4 708.3,156.4 708.3,222.8 724.8,222.8 		"/>
		<polygon class="st0" points="781.7,222.8 781.7,209.6 757.3,209.6 757.3,195.1 780.5,195.1 780.5,182.6 757.3,182.6 757.3,169.3 
			781.7,169.3 781.7,156.4 740.8,156.4 740.8,222.8 781.7,222.8 		"/>
		<path class="st1" d="M2.5,169.9c0-47.5,30.1-88,72.3-103.4c-26.6,20.1-43.7,52-43.7,87.8c0,60.8,49.3,110.1,110.1,110.1
			c13.3,0,26-2.3,37.8-6.6c-18.5,14-41.5,22.3-66.4,22.3C51.8,280,2.5,230.7,2.5,169.9L2.5,169.9z"/>
		<path class="st2" d="M42.3,131.9c6.3-41.2,41.9-72.7,84.8-72.7c42.9,0,78.5,31.5,84.8,72.7c-15.5-28.3-47.6-47.7-84.8-47.7
			C89.9,84.2,57.8,103.6,42.3,131.9L42.3,131.9z"/>
		<path class="st2" d="M105.4,40.4l11-37.5l11,37.4c-3.5-0.3-7.1-0.4-10.7-0.4C112.8,39.9,109.1,40,105.4,40.4L105.4,40.4z"/>
		<path class="st2" d="M62.2,51.9l-2.5-39l23.1,31.5C75.7,46.3,68.8,48.8,62.2,51.9L62.2,51.9z"/>
		<path class="st2" d="M149.9,44.2L173,12.9l-2.5,38.8C163.9,48.6,157.1,46.1,149.9,44.2L149.9,44.2z"/>
		<path class="st2" d="M190.5,63.2l32.4-21.6l-15.6,35.6C202,72.1,196.4,67.4,190.5,63.2L190.5,63.2z"/>
		<path class="st2" d="M222.1,94.9l37.7-9.2l-26.8,28C229.9,107.1,226.2,100.8,222.1,94.9L222.1,94.9z"/>
	</g>
</g>
</svg>
